REM DIRINDEX 1\2,1\3,1\4,1\6,1\5\7,1\5\8
REM DIRNAME folder01,folder02,folder03,folder04,folder05,folder06,folder07,folder08
TITLE ""
FILE "DB4500_5th_4B_29.mp3" MP3
  TRACK 01 AUDIO
    TITLE "0:"
    INDEX 01 00:00:00
  TRACK 02 AUDIO
    TITLE "2:cjc114_2644"
    INDEX 01 00:00:03
  TRACK 03 AUDIO
    TITLE "0:"
    INDEX 01 00:01:09
  TRACK 04 AUDIO
    TITLE "3:cjc114_2645"
    INDEX 01 00:01:34
  TRACK 05 AUDIO
    TITLE "0:"
    INDEX 01 00:02:61
  TRACK 06 AUDIO
    TITLE "4:cjc114_2646"
    INDEX 01 00:03:12
  TRACK 07 AUDIO
    TITLE "0:"
    INDEX 01 00:06:57
  TRACK 08 AUDIO
    TITLE "2:cjc114_2647"
    INDEX 01 00:07:33
  TRACK 09 AUDIO
    TITLE "0:"
    INDEX 01 00:08:48
  TRACK 10 AUDIO
    TITLE "3:cjc114_2648"
    INDEX 01 00:08:73
  TRACK 11 AUDIO
    TITLE "0:"
    INDEX 01 00:10:59
  TRACK 12 AUDIO
    TITLE "4:cjc114_2649"
    INDEX 01 00:11:09
  TRACK 13 AUDIO
    TITLE "0:"
    INDEX 01 00:15:50
  TRACK 14 AUDIO
    TITLE "2:cjc114_2650"
    INDEX 01 00:16:24
  TRACK 15 AUDIO
    TITLE "0:"
    INDEX 01 00:17:41
  TRACK 16 AUDIO
    TITLE "3:cjc114_2651"
    INDEX 01 00:17:69
  TRACK 17 AUDIO
    TITLE "0:"
    INDEX 01 00:19:20
  TRACK 18 AUDIO
    TITLE "4:cjc114_2652"
    INDEX 01 00:19:44
  TRACK 19 AUDIO
    TITLE "0:"
    INDEX 01 00:25:13
  TRACK 20 AUDIO
    TITLE "2:cjc114_2653"
    INDEX 01 00:25:64
  TRACK 21 AUDIO
    TITLE "0:"
    INDEX 01 00:26:69
  TRACK 22 AUDIO
    TITLE "3:cjc114_2654"
    INDEX 01 00:27:20
  TRACK 23 AUDIO
    TITLE "0:"
    INDEX 01 00:29:34
  TRACK 24 AUDIO
    TITLE "4:cjc114_2655"
    INDEX 01 00:29:60
  TRACK 25 AUDIO
    TITLE "0:"
    INDEX 01 00:34:34
  TRACK 26 AUDIO
    TITLE "2:cjc114_2656"
    INDEX 01 00:35:06
  TRACK 27 AUDIO
    TITLE "0:"
    INDEX 01 00:36:07
  TRACK 28 AUDIO
    TITLE "3:cjc114_2657"
    INDEX 01 00:36:29
  TRACK 29 AUDIO
    TITLE "0:"
    INDEX 01 00:37:48
  TRACK 30 AUDIO
    TITLE "4:cjc114_2658"
    INDEX 01 00:37:69
  TRACK 31 AUDIO
    TITLE "0:"
    INDEX 01 00:41:47
  TRACK 32 AUDIO
    TITLE "2:cjc114_2659"
    INDEX 01 00:42:21
  TRACK 33 AUDIO
    TITLE "0:"
    INDEX 01 00:43:33
  TRACK 34 AUDIO
    TITLE "3:cjc114_2660"
    INDEX 01 00:43:56
  TRACK 35 AUDIO
    TITLE "0:"
    INDEX 01 00:45:08
  TRACK 36 AUDIO
    TITLE "4:cjc114_2661"
    INDEX 01 00:45:30
  TRACK 37 AUDIO
    TITLE "0:"
    INDEX 01 00:49:00
  TRACK 38 AUDIO
    TITLE "2:cjc114_2662"
    INDEX 01 00:49:49
  TRACK 39 AUDIO
    TITLE "0:"
    INDEX 01 00:50:46
  TRACK 40 AUDIO
    TITLE "3:cjc114_2663"
    INDEX 01 00:50:70
  TRACK 41 AUDIO
    TITLE "0:"
    INDEX 01 00:52:02
  TRACK 42 AUDIO
    TITLE "4:cjc114_2664"
    INDEX 01 00:52:20
  TRACK 43 AUDIO
    TITLE "0:"
    INDEX 01 00:55:44
  TRACK 44 AUDIO
    TITLE "2:cjc114_2665"
    INDEX 01 00:56:16
  TRACK 45 AUDIO
    TITLE "0:"
    INDEX 01 00:57:21
  TRACK 46 AUDIO
    TITLE "3:cjc114_2666"
    INDEX 01 00:57:46
  TRACK 47 AUDIO
    TITLE "0:"
    INDEX 01 00:59:10
  TRACK 48 AUDIO
    TITLE "4:cjc114_2667"
    INDEX 01 00:59:30
  TRACK 49 AUDIO
    TITLE "0:"
    INDEX 01 01:03:06
  TRACK 50 AUDIO
    TITLE "2:cjc114_2668"
    INDEX 01 01:03:55
  TRACK 51 AUDIO
    TITLE "0:"
    INDEX 01 01:04:48
  TRACK 52 AUDIO
    TITLE "3:cjc114_2669"
    INDEX 01 01:04:72
  TRACK 53 AUDIO
    TITLE "0:"
    INDEX 01 01:06:26
  TRACK 54 AUDIO
    TITLE "4:cjc114_2670"
    INDEX 01 01:06:49
  TRACK 55 AUDIO
    TITLE "0:"
    INDEX 01 01:08:62
  TRACK 56 AUDIO
    TITLE "2:cjc114_2671"
    INDEX 01 01:09:38
  TRACK 57 AUDIO
    TITLE "0:"
    INDEX 01 01:10:53
  TRACK 58 AUDIO
    TITLE "3:cjc114_2672"
    INDEX 01 01:11:03
  TRACK 59 AUDIO
    TITLE "0:"
    INDEX 01 01:12:30
  TRACK 60 AUDIO
    TITLE "4:cjc114_2673"
    INDEX 01 01:12:54
  TRACK 61 AUDIO
    TITLE "0:"
    INDEX 01 01:17:14
